<?xml version="1.0" standalone="no"?>
<!DOCTYPE svg PUBLIC "-//W3C//DTD SVG 20010904//EN"
 "http://www.w3.org/TR/2001/REC-SVG-20010904/DTD/svg10.dtd">
<svg version="1.0" xmlns="http://www.w3.org/2000/svg"
 width="400.000000pt" height="400.000000pt" viewBox="0 0 400.000000 400.000000"
 preserveAspectRatio="xMidYMid meet">
<metadata>
Created by potrace 1.14, written by Peter Selinger 2001-2017
</metadata>
<g transform="translate(0.000000,400.000000) scale(0.100000,-0.100000)"
fill="#000000" stroke="none">
<path d="M1586 3561 c-3 -4 -5 -39 -5 -77 2 -106 1 -110 -25 -122 -34 -15 -95
-71 -111 -101 -45 -88 -10 -189 88 -252 26 -17 47 -38 48 -48 0 -9 1 -91 2
-184 l2 -167 -25 -1 c-14 -1 -63 -1 -110 -2 l-86 0 -239 -476 c-162 -323 -263
-510 -312 -583 -40 -59 -73 -111 -73 -117 0 -5 22 -20 48 -34 48 -25 62 -33
174 -96 l57 -32 16 38 c9 21 33 76 52 123 19 47 88 188 152 315 l116 230 3
-208 2 -207 53 0 52 0 1 -555 c0 -305 2 -557 5 -559 6 -6 67 -8 245 -7 l161 1
1 58 c1 31 3 282 4 557 l3 500 118 2 c64 1 117 -1 117 -5 0 -4 1 -253 3 -554
1 -300 4 -549 7 -552 7 -6 390 -10 396 -3 9 9 11 129 13 620 1 392 4 498 14
496 6 -1 33 -1 59 0 l47 1 0 193 c0 105 0 205 0 222 1 22 31 -30 120 -206 104
-205 147 -297 215 -462 l16 -39 52 30 c29 16 80 44 113 62 97 53 115 64 115
72 0 4 -33 56 -73 115 -48 72 -151 263 -306 573 -129 256 -238 470 -242 476
-6 7 -55 11 -139 10 -80 -1 -130 3 -131 9 0 6 -1 88 -2 184 l-2 173 40 20
c118 59 163 164 114 266 -21 42 -79 94 -126 113 -25 9 -25 9 -26 122 l0 77
-403 0 c-221 0 -405 -4 -408 -9z"/>
</g>
</svg>
